<svg width="24" height="24" viewBox="0 0 24 24" fill="none" xmlns="http://www.w3.org/2000/svg">
<path d="M12 0C17.2871 0 21.7579 2.18288 21.9092 4.79593C21.7579 7.40874 17.2871 9.59217 12 9.59217C6.71275 9.59217 2.24237 7.40922 2.09084 4.79593C2.24237 2.18288 6.71275 0 12 0Z" fill="#1890FF"/>
<path d="M21.9234 19.0687C21.9234 21.7417 17.3794 24 12 24C6.62063 24 2.07658 21.7417 2.07658 19.0687V16.7106C3.7755 18.7505 7.53295 20.1379 12 20.1379C16.4671 20.1379 20.2244 18.7501 21.9234 16.7106V19.0687Z" fill="#1890FF"/>
<path d="M21.9234 14.2326C21.9234 16.9055 17.3794 19.1639 12 19.1639C6.62063 19.1639 2.07658 16.9055 2.07658 14.2326V11.7765C3.7755 13.8159 7.53295 15.2029 12 15.2029C16.4671 15.2029 20.2244 13.815 21.9234 11.7765V14.2326Z" fill="#1890FF"/>
<path d="M21.9234 9.29744C21.9234 11.9705 17.3794 14.2287 12 14.2287C6.62063 14.2287 2.07658 11.9705 2.07658 9.29744V7.13936C3.7755 9.17927 7.53295 10.5657 12 10.5657C16.4671 10.5657 20.2244 9.17879 21.9234 7.13936V9.29744Z" fill="#1890FF"/>
</svg>
