<svg width="44" height="44" viewBox="0 0 44 44" fill="none" xmlns="http://www.w3.org/2000/svg">
<circle cx="22" cy="22" r="20.75" stroke="#1890FF" stroke-width="1.5"/>
<g clip-path="url(#clip0_22_330)">
<path d="M19.337 31.236L19.3369 31.236C18.9851 31.588 18.4149 31.5879 18.0635 31.2361L18.0633 31.236C17.7117 30.8844 17.7117 30.3141 18.0633 29.9626L17.71 29.6093L18.0633 29.9626L25.6727 22.3534L26.0263 21.9999L25.6727 21.6463L18.0636 14.0375C18.0636 14.0374 18.0635 14.0374 18.0635 14.0374C17.7119 13.6855 17.712 13.1153 18.0635 12.7638L18.0636 12.7638C18.4151 12.4121 18.9853 12.412 19.3372 12.7638L19.3372 12.7638L27.9368 21.3633C27.9368 21.3633 27.9368 21.3634 27.9369 21.3634C28.1128 21.5394 28.2004 21.7687 28.2004 21.9998C28.2004 22.2311 28.1125 22.4607 27.9366 22.6366L19.337 31.236Z" fill="#1890FF" stroke="#1890FF"/>
</g>
<defs>
<clipPath id="clip0_22_330">
<rect width="20" height="20" fill="white" transform="translate(13 12)"/>
</clipPath>
</defs>
</svg>
